<svg width="59" height="59" viewBox="0 0 59 59" fill="none" xmlns="http://www.w3.org/2000/svg">
<path d="M18.2666 1.13251C16.8737 1.58065 15.6141 2.85241 15.1781 4.2695C14.4271 6.65555 15.5051 9.05371 17.8185 10.1317C18.4846 10.4466 18.7995 10.5071 19.6474 10.5435L20.6769 10.5677L20.9312 11.2096C21.0766 11.5609 21.234 11.8516 21.2825 11.8395C21.6095 11.8152 22.9297 11.2339 22.9297 11.1127C22.9297 11.028 22.8207 10.713 22.6875 10.3981L22.4452 9.82888L23.0508 9.29595C23.608 8.78725 24.5043 7.29749 24.5043 6.87357C24.5043 6.72823 25.3521 6.704 29.4701 6.704C33.5882 6.704 34.436 6.72823 34.436 6.87357C34.436 7.29749 35.3323 8.78725 35.8895 9.28384L36.4951 9.82888L36.0106 10.9916L35.5382 12.1665L35.8047 12.2634C35.95 12.3239 36.3618 12.4814 36.7131 12.6267C37.3066 12.869 37.355 12.869 37.4277 12.6631C37.4761 12.5541 37.682 12.0332 37.8879 11.5124L38.2634 10.5677L39.2929 10.5435C40.1044 10.5071 40.4678 10.4345 41.0734 10.1559L41.8485 9.81676L45.7243 13.7047L49.6123 17.5805L49.2731 18.3557C48.9946 18.9613 48.9219 19.3246 48.8856 20.1361L48.8613 21.1656L45.4942 22.5101C43.6411 23.2489 42.0302 23.8908 41.9212 23.9393C41.7153 24.0119 41.7153 24.0604 41.9575 24.6539C42.1029 25.0051 42.2603 25.4169 42.3209 25.5623C42.4178 25.8166 42.5026 25.7924 46.015 24.3874L49.6123 22.9461L50.1452 23.5396C50.6418 24.0967 52.1316 24.993 52.5555 24.993C52.7008 24.993 52.725 25.8408 52.725 29.9589C52.725 34.077 52.7008 34.9248 52.5555 34.9248C52.1316 34.9248 50.6418 35.8211 50.1452 36.3782L49.6123 36.9717L48.2436 36.4267C47.4927 36.1239 46.8386 35.918 46.7781 35.9785C46.6812 36.0875 46.0514 37.6136 46.0998 37.65C46.1119 37.6621 46.7418 37.9164 47.4927 38.2192L48.8613 38.7522L48.8856 39.7817C48.9219 40.5932 48.9946 40.9565 49.2731 41.5621L49.6123 42.3252L48.6554 43.2941L47.6986 44.251L48.4011 44.9414L49.1157 45.6196L50.0604 44.6749L51.0173 43.7302L51.7803 44.0814C52.4465 44.3842 52.6887 44.4327 53.7061 44.4327C54.7962 44.4327 54.9052 44.4084 55.7773 43.9845C56.8794 43.4395 57.5577 42.737 58.0906 41.6106C58.4419 40.8718 58.4782 40.6901 58.4782 39.6484C58.4782 38.6068 58.4419 38.4251 58.0906 37.6863C57.5819 36.5962 56.8794 35.8695 55.8378 35.3487C55.3776 35.1186 54.9173 34.9248 54.8325 34.9248C54.6872 34.9248 54.663 34.077 54.663 29.9589C54.663 25.8408 54.6872 24.993 54.8325 24.993C54.9173 24.993 55.3776 24.7992 55.8378 24.5691C56.8794 24.0483 57.5819 23.3216 58.0906 22.2315C58.4419 21.4927 58.4782 21.311 58.4782 20.2694C58.4782 19.2277 58.4419 19.0461 58.0906 18.3072C57.5577 17.1808 56.8794 16.4783 55.7773 15.9333C54.9052 15.5094 54.7962 15.4851 53.7061 15.4851C52.6887 15.4851 52.4465 15.5336 51.7803 15.8364L51.0051 16.1876L47.1293 12.2997L43.2414 8.42389L43.5927 7.64873C43.8954 6.98257 43.9439 6.74034 43.9439 5.72293C43.9439 4.63286 43.9197 4.52385 43.4958 3.65179C42.9507 2.54961 42.2482 1.87134 41.1218 1.33842C40.383 0.987171 40.2013 0.950832 39.1597 0.950832C38.1181 0.950832 37.9364 0.987171 37.1976 1.33842C36.1075 1.84712 35.3808 2.54961 34.86 3.59124C34.6298 4.05149 34.436 4.51174 34.436 4.59652C34.436 4.74187 33.5882 4.76609 29.4701 4.76609C25.5822 4.76609 24.5043 4.72976 24.5043 4.60863C24.5043 4.29373 23.7775 2.9493 23.3536 2.48905C22.094 1.08406 20.0955 0.55114 18.2666 1.13251ZM20.6769 2.97353C21.343 3.16732 22.3483 4.17261 22.5421 4.83876C22.8813 5.97728 22.639 6.88568 21.7791 7.73351C21.1614 8.36333 20.5437 8.64191 19.7806 8.64191C18.2787 8.64191 16.8737 7.23693 16.8737 5.73505C16.8737 4.97199 17.1523 4.35429 17.7821 3.73658C18.63 2.87663 19.5384 2.6465 20.6769 2.97353ZM40.056 2.97353C41.0976 3.28844 42.0665 4.62075 42.0665 5.73505C42.0665 7.23693 40.6616 8.64191 39.1597 8.64191C38.3966 8.64191 37.7789 8.36333 37.1612 7.73351C35.9258 6.51021 35.9258 4.95988 37.1612 3.73658C38.0091 2.87663 38.9174 2.6465 40.056 2.97353ZM54.5903 17.5078C55.6319 17.8228 56.6009 19.1551 56.6009 20.2694C56.6009 21.7712 55.1959 23.1762 53.694 23.1762C52.931 23.1762 52.3132 22.8976 51.6955 22.2678C50.4601 21.0445 50.4601 19.4942 51.6955 18.2709C52.5434 17.4109 53.4518 17.1808 54.5903 17.5078ZM54.5903 36.8869C55.6319 37.2018 56.6009 38.5342 56.6009 39.6484C56.6009 41.1503 55.1959 42.5553 53.694 42.5553C52.1921 42.5553 50.7871 41.1503 50.7871 39.6484C50.7871 38.8854 51.0657 38.2677 51.6955 37.65C52.5434 36.79 53.4518 36.5599 54.5903 36.8869Z" fill="#878787"/>
<path d="M10.9155 13.2079L7.93595 16.1875L7.16079 15.8362C6.49463 15.5334 6.25239 15.485 5.23499 15.485C4.14492 15.485 4.03591 15.5092 3.16385 15.9331C2.06167 16.4782 1.3834 17.1806 0.850472 18.3071C0.499226 19.0459 0.462891 19.2276 0.462891 20.2692C0.462891 21.3108 0.499226 21.4925 0.850472 22.2313C1.35917 23.3214 2.06167 24.0481 3.10329 24.5689C3.56354 24.799 4.0238 24.9928 4.10858 24.9928C4.25392 24.9928 4.27815 25.8407 4.27815 29.9587C4.27815 34.0768 4.25392 34.9246 4.10858 34.9246C4.0238 34.9246 3.56354 35.1184 3.10329 35.3485C2.06167 35.8694 1.35917 36.5961 0.850472 37.6861C0.499226 38.425 0.462891 38.6066 0.462891 39.6604C0.462891 40.7505 0.487114 40.8595 0.911032 41.7315C1.45607 42.8337 2.15856 43.512 3.28497 44.0449C4.0238 44.3961 4.20548 44.4325 5.2471 44.4325C6.25239 44.4325 6.49463 44.384 7.16079 44.0812L7.93595 43.73L11.8118 47.6179L15.6997 51.4937L15.3485 52.2689C15.0457 52.9351 14.9972 53.1773 14.9972 54.1947C14.9972 55.2848 15.0214 55.3938 15.4575 56.2658C15.9904 57.368 16.6929 58.0342 17.8435 58.5913C18.5581 58.9305 18.7398 58.9668 19.7814 58.9668C20.823 58.9668 21.0047 58.9305 21.7435 58.5792C22.8336 58.0705 23.5603 57.368 24.0812 56.3264C24.3113 55.8661 24.5051 55.4059 24.5051 55.3211C24.5051 55.1758 25.3529 55.1515 29.471 55.1515C33.589 55.1515 34.4368 55.1758 34.4368 55.3211C34.4368 55.4059 34.6306 55.8661 34.8608 56.3264C35.3816 57.368 36.1083 58.0705 37.1984 58.5792C37.9372 58.9305 38.1189 58.9668 39.1605 58.9668C40.2021 58.9668 40.3838 58.9305 41.1226 58.5792C42.249 58.0463 42.9515 57.368 43.4966 56.2658C43.9205 55.3938 43.9447 55.2848 43.9447 54.1947C43.9447 53.1773 43.8963 52.9351 43.5935 52.2689L43.2422 51.5058L45.3497 49.3863L47.4572 47.2788L46.7547 46.5884L46.0643 45.8859L43.9568 47.9934L41.8372 50.1009L41.0742 49.7496C40.408 49.4468 40.1658 49.3984 39.1605 49.3984C38.1189 49.3984 37.9372 49.4347 37.1984 49.786C36.1083 50.2947 35.3816 50.9971 34.8608 52.0388C34.6306 52.499 34.4368 52.9593 34.4368 53.0441C34.4368 53.1894 33.589 53.2136 29.471 53.2136C25.3529 53.2136 24.5051 53.1894 24.5051 53.0441C24.5051 52.6201 23.6088 51.1304 23.0516 50.6217L22.446 50.0888L22.6883 49.5195C22.8215 49.2046 22.9305 48.8897 22.9305 48.8049C22.9305 48.6717 21.5134 48.0661 21.2712 48.0903C21.2227 48.1024 21.0653 48.381 20.9199 48.7201L20.6777 49.3499L19.6482 49.3741C18.8367 49.4105 18.4733 49.4832 17.8677 49.7617L17.0926 50.1009L13.2168 46.2129L9.32882 42.3371L9.66796 41.562C9.94653 40.9564 10.0192 40.593 10.0555 39.7815L10.0798 38.752L13.4469 37.4076C15.3 36.6687 16.9109 36.0268 17.0199 35.9784C17.2258 35.9057 17.2258 35.8572 16.9836 35.2638C16.8382 34.9125 16.6808 34.5007 16.6202 34.3554C16.5233 34.101 16.4385 34.1252 12.9261 35.5302L9.32882 36.9715L8.7959 36.378C8.29931 35.8209 6.80954 34.9246 6.38562 34.9246C6.24028 34.9246 6.21606 34.0768 6.21606 29.9587C6.21606 25.8407 6.24028 24.9928 6.38562 24.9928C6.80954 24.9928 8.29931 24.0966 8.7959 23.5394L9.32882 22.9459L12.9261 24.3872C16.4385 25.7922 16.5233 25.8164 16.6202 25.5621C16.6808 25.4168 16.8382 25.005 16.9836 24.6537C17.2258 24.0602 17.2258 24.0118 17.0199 23.9391C16.9109 23.8907 15.3 23.2487 13.4469 22.5099L10.0798 21.1655L10.0555 20.136C10.0192 19.3245 9.94653 18.9611 9.66796 18.3555L9.32882 17.5924L12.3084 14.6008L15.3 11.6092L14.6338 10.9067C14.2826 10.5312 13.9677 10.2163 13.9435 10.2163C13.9192 10.2163 12.5627 11.5607 10.9155 13.2079ZM6.14338 17.5077C7.18501 17.8226 8.15396 19.1549 8.15396 20.2692C8.15396 21.7711 6.74898 23.176 5.2471 23.176C4.48405 23.176 3.86634 22.8975 3.24863 22.2677C2.01322 21.0443 2.01322 19.494 3.24863 18.2707C4.09647 17.4108 5.00486 17.1806 6.14338 17.5077ZM6.14338 36.8868C6.80954 37.0805 7.81483 38.0858 8.00862 38.752C8.34776 39.8905 8.10552 40.7989 7.24557 41.6467C6.02227 42.8822 4.47194 42.8822 3.24863 41.6467C2.01322 40.4234 2.01322 38.8731 3.24863 37.6498C4.09647 36.7899 5.00486 36.5597 6.14338 36.8868ZM20.6777 51.4211C21.7193 51.736 22.6883 53.0683 22.6883 54.1826C22.6883 55.6845 21.2833 57.0894 19.7814 57.0894C18.2795 57.0894 16.8746 55.6845 16.8746 54.1826C16.8746 53.4195 17.1531 52.8018 17.7829 52.1841C18.6308 51.3242 19.5392 51.094 20.6777 51.4211ZM40.0568 51.4211C41.0984 51.736 42.0674 53.0683 42.0674 54.1826C42.0674 55.6845 40.6624 57.0894 39.1605 57.0894C37.6586 57.0894 36.2536 55.6845 36.2536 54.1826C36.2536 53.4195 36.5322 52.8018 37.162 52.1841C38.0099 51.3242 38.9183 51.094 40.0568 51.4211Z" fill="#878787"/>
<path d="M21.7666 13.5955C21.1853 13.7409 20.1558 14.3464 19.8287 14.734C19.6592 14.9399 19.3806 15.376 19.211 15.7151C18.9325 16.2601 18.884 16.5145 18.8356 17.8105L18.7871 19.3002H19.7561H20.725L20.7735 17.98C20.8098 16.5508 20.9188 16.2722 21.6455 15.7393C21.9241 15.5213 22.1906 15.485 23.4744 15.4486L24.9763 15.4002L25.4002 16.2601C25.6425 16.7325 25.9453 17.1685 26.0664 17.2412C26.2117 17.3139 27.5077 17.3623 29.4698 17.3623C31.432 17.3623 32.7279 17.3139 32.8733 17.2412C32.9944 17.1685 33.2972 16.7325 33.5273 16.2722L33.9512 15.4244H35.2836C36.846 15.4244 37.282 15.5576 37.7786 16.2238L38.1299 16.6719L38.1662 25.5136L38.1904 34.3554L37.1246 33.3258C35.9982 32.2479 35.3441 31.8966 34.4357 31.8966C32.8612 31.8966 31.4077 33.3501 31.4077 34.9246C31.4077 35.9541 31.7226 36.4628 33.4062 38.1948L34.9929 39.8299L34.7022 40.6172C34.0966 42.216 34.2177 44.3598 34.9808 46.0555C35.1503 46.4067 35.2836 46.8549 35.2836 47.0487V47.3999H36.2525H37.2215V46.8064C37.2215 46.3704 37.1003 45.9586 36.7733 45.2682C36.3252 44.3356 36.3131 44.275 36.3131 42.9669C36.3131 41.6588 36.3252 41.5983 36.7733 40.7262C37.0156 40.2296 37.2215 39.6967 37.2215 39.5393C37.2215 39.3212 36.7007 38.7278 35.2836 37.2864C33.5879 35.5665 33.3456 35.2759 33.3456 34.9367C33.3456 34.3917 33.9149 33.8345 34.4478 33.8345C34.8112 33.8345 35.1261 34.1131 37.5848 36.5597C39.0867 38.0616 40.3706 39.2849 40.4311 39.2849C40.5886 39.2849 41.7029 38.1464 41.7029 38.001C41.7029 37.9405 41.3516 37.5287 40.9156 37.1048L40.1283 36.3296V32.8656V29.4137L41.2184 30.5038C41.933 31.2063 42.4296 31.8361 42.6476 32.26L42.9746 32.9261L43.011 38.7156L43.0473 44.493H44.0041H44.9731V38.9216C44.9731 35.3485 44.9247 33.132 44.8399 32.7202C44.5492 31.3395 44.0768 30.637 42.042 28.5659L40.1404 26.6158L40.1041 21.4804L40.0678 16.3328L39.7407 15.7151C39.2563 14.7946 38.8929 14.4191 38.0451 13.9589L37.282 13.5471L29.7121 13.5228C25.5456 13.5107 21.9725 13.5471 21.7666 13.5955Z" fill="#878787"/>
<path d="M18.8367 32.8894L18.8731 44.5532L19.2001 45.1709C19.6846 46.0914 20.0479 46.4669 20.8958 46.9271L21.6588 47.3389L27.5089 47.3753L33.3468 47.4116V46.4427V45.4737L27.6784 45.4374L21.9979 45.401L21.5498 45.0498C20.702 44.4079 20.7504 45.0982 20.7504 32.5624V21.2377H19.7815H18.8125L18.8367 32.8894Z" fill="#878787"/>
<path d="M28.1984 23.261C26.7328 23.4669 24.8918 24.2542 23.7533 25.1747C23.3657 25.4896 23.0508 25.7803 23.0508 25.8287C23.0508 25.8772 23.3415 26.2042 23.7048 26.5554L24.371 27.2095L24.8918 26.7613C25.994 25.8166 27.9319 25.1141 29.4701 25.1141C31.0083 25.1141 32.9462 25.8166 34.0484 26.7613L34.5813 27.2095L35.2596 26.5191L35.95 25.8287L35.4655 25.4048C33.576 23.7576 30.7176 22.9097 28.1984 23.261Z" fill="url(#paint0_linear_55_3791)"/>
<path d="M28.1997 26.9912C27.8727 27.088 27.5578 27.1607 27.5214 27.1728C27.3761 27.1728 25.959 28.166 25.959 28.2508C25.959 28.3719 27.1217 29.5952 27.2307 29.5952C27.2792 29.5952 27.473 29.4862 27.6547 29.353C28.1391 29.0138 28.9264 28.7474 29.4714 28.7474C30.0165 28.7474 30.8038 29.0138 31.2882 29.353C31.4699 29.4862 31.6637 29.5952 31.7122 29.5952C31.809 29.5952 32.9839 28.3719 32.9839 28.2629C32.9839 28.1054 31.7243 27.3061 31.1671 27.1002C30.392 26.8337 28.9385 26.7731 28.1997 26.9912Z" fill="url(#paint1_linear_55_3791)"/>
<path d="M24.625 33.8348V34.8037H25.594H26.5629V33.8348V32.8658H25.594H24.625V33.8348Z" fill="url(#paint2_linear_55_3791)"/>
<path d="M28.502 33.8348V34.8037H29.4709H30.4399V33.8348V32.8658H29.4709H28.502V33.8348Z" fill="url(#paint3_linear_55_3791)"/>
<path d="M27.5332 42.5555V43.5244H29.4711H31.409V42.5555V41.5865H29.4711H27.5332V42.5555Z" fill="url(#paint4_linear_55_3791)"/>
<defs>
<linearGradient id="paint0_linear_55_3791" x1="20.4733" y1="23.4492" x2="23.6025" y2="33.8261" gradientUnits="userSpaceOnUse">
<stop stop-color="#D41700"/>
<stop offset="1" stop-color="#7F0011"/>
</linearGradient>
<linearGradient id="paint1_linear_55_3791" x1="24.5553" y1="27.0397" x2="27.0913" y2="33.7789" gradientUnits="userSpaceOnUse">
<stop stop-color="#D41700"/>
<stop offset="1" stop-color="#7F0011"/>
</linearGradient>
<linearGradient id="paint2_linear_55_3791" x1="24.2378" y1="32.9941" x2="26.9601" y2="35.8124" gradientUnits="userSpaceOnUse">
<stop stop-color="#D41700"/>
<stop offset="1" stop-color="#7F0011"/>
</linearGradient>
<linearGradient id="paint3_linear_55_3791" x1="28.1147" y1="32.9941" x2="30.837" y2="35.8124" gradientUnits="userSpaceOnUse">
<stop stop-color="#D41700"/>
<stop offset="1" stop-color="#7F0011"/>
</linearGradient>
<linearGradient id="paint4_linear_55_3791" x1="26.7588" y1="41.7148" x2="28.8922" y2="46.1323" gradientUnits="userSpaceOnUse">
<stop stop-color="#D41700"/>
<stop offset="1" stop-color="#7F0011"/>
</linearGradient>
</defs>
</svg>
