<svg width="54" height="59" viewBox="0 0 54 59" fill="none" xmlns="http://www.w3.org/2000/svg">
<path d="M18.1417 0.993706C17.1585 1.29884 16.2883 2.05603 15.8588 2.98273L15.5989 3.54779L15.565 10.0799C15.5424 15.0751 15.4972 16.6008 15.3955 16.5556C14.7061 16.273 13.9715 16.1261 13.4404 16.1939C11.8017 16.3861 10.5246 17.5501 10.2421 19.1323C10.163 19.5843 10.1178 23.1216 10.1178 29.7103V39.6102L9.338 40.3787L8.56952 41.1472L7.97055 40.9663C6.80652 40.616 5.34865 40.7968 4.28633 41.4184C3.61956 41.8139 2.80586 42.718 2.45553 43.4752C2.18429 44.0516 2.15039 44.255 2.15039 45.3625C2.15039 46.5492 2.17299 46.6509 2.53463 47.3968C2.87367 48.0861 3.28052 48.5495 5.81201 51.1036C7.39418 52.7084 8.80684 54.0419 8.95376 54.0758C9.38321 54.1888 9.76745 54.0306 9.95958 53.6464C10.0952 53.3978 10.1065 53.2282 10.0274 53.0587C9.97088 52.9231 8.61472 51.4878 7.02124 49.8604C5.28085 48.0861 4.04901 46.7413 3.9586 46.504C3.86819 46.2779 3.78908 45.7807 3.78908 45.3964C3.80038 44.2324 4.34284 43.3057 5.31475 42.7858C5.93632 42.4581 7.26987 42.4468 7.91404 42.7632C8.59212 43.091 17.667 52.2789 17.9948 52.9683C18.5146 54.0645 18.2208 55.5563 17.328 56.3361C16.1527 57.3645 14.4801 57.2628 13.1804 56.0988C12.6606 55.6241 12.1972 55.5789 11.8356 55.9631C11.7 56.1101 11.587 56.37 11.587 56.5508C11.587 57.195 13.1578 58.3364 14.4236 58.6302C16.4578 59.1049 18.6842 57.9974 19.5883 56.0649C19.8595 55.4998 19.8934 55.2851 19.8934 54.234C19.8934 53.1943 19.8595 52.957 19.5883 52.3128L19.2718 51.5782L20.029 50.8211L20.7862 50.0526H21.7129C24.606 50.0526 27.4314 48.8772 29.5899 46.7865C30.2906 46.1084 31.1608 44.9896 31.5902 44.2098L31.8502 43.7352L34.6868 43.7013L37.5234 43.6673L38.1337 43.3283C38.7891 42.9667 39.3768 42.3225 39.6932 41.6218C39.8741 41.2263 39.8967 40.6951 39.9306 36.6945L39.9645 32.2078L40.5182 32.027C41.9083 31.5637 42.7785 30.3431 42.7785 28.874C42.7785 27.9812 42.5186 27.2692 42.0213 26.7493L41.7388 26.4555L42.0213 26.0713C43.0158 24.7829 43.0384 23.0651 42.0891 21.8785L41.7501 21.4603L42.0891 21.0309C43.0158 19.8895 43.0158 18.0586 42.0891 16.9059L41.7501 16.4878L42.0891 16.0583C43.4566 14.3631 42.6429 11.5265 40.5973 10.8823L39.9645 10.6902L39.9306 7.06249C39.8967 3.51389 39.8854 3.42348 39.6254 2.90362C39.2751 2.19164 38.6535 1.55877 37.9641 1.21973L37.4104 0.948502L31.4659 0.914597C25.7588 0.880692 25.5101 0.891994 25.2615 1.09542C24.9338 1.36665 24.8886 2.03342 25.1824 2.33856C25.3632 2.51938 25.8718 2.53068 31.2512 2.58718C36.947 2.64369 37.1166 2.65499 37.4217 2.88102C37.9189 3.25396 38.1676 3.64951 38.2241 4.21457L38.2919 4.73443H27.8156H17.3506V4.23717C17.3506 3.63821 17.7123 3.06184 18.2547 2.79061C18.5711 2.63239 18.9441 2.58718 20.0403 2.58718C21.3626 2.58718 21.4417 2.57589 21.7016 2.30465C21.8598 2.15774 21.9841 1.89781 21.9841 1.73959C21.9841 1.58137 21.8598 1.32144 21.7016 1.17453C21.4417 0.903294 21.3739 0.891994 19.9273 0.903294C19.1023 0.903294 18.2999 0.948502 18.1417 0.993706ZM38.258 8.57687V10.7241H37.8285C36.2238 10.7241 34.7546 12.2498 34.7546 13.9337C34.7546 14.8604 34.9128 15.3689 35.3875 15.9792L35.7717 16.4991L35.444 16.9172C34.5173 18.0699 34.5173 19.8895 35.4553 21.0422L35.7943 21.4829L35.5118 21.7768C35.0484 22.2853 34.8337 22.8278 34.7772 23.6754C34.7207 24.636 34.8563 25.1445 35.3988 25.913L35.7943 26.4555L35.5005 26.7606C34.7207 27.5743 34.5173 29.1226 35.0258 30.2414C35.5344 31.3377 36.7888 32.1965 37.8737 32.1965H38.258L38.2354 34.3099L38.2015 36.4345H30.1889H22.1876L21.9163 35.4965C21.2157 33.0893 19.9273 31.202 18.1417 29.9815L17.3506 29.439V17.9343V6.42962H27.8043H38.258V8.57687ZM40.3713 12.6453C41.3658 13.2443 41.298 14.8717 40.2583 15.448C39.7384 15.7193 37.7833 15.7193 37.2635 15.4367C36.2238 14.8717 36.1672 13.2443 37.1618 12.6453C37.4669 12.4532 37.7381 12.4193 38.7665 12.4193C39.795 12.4193 40.0662 12.4532 40.3713 12.6453ZM40.3713 17.6179C40.8234 17.8891 41.0833 18.3751 41.0833 18.974C41.0833 19.573 40.8234 20.059 40.3713 20.3302C40.0662 20.5223 39.795 20.5562 38.7891 20.5562C37.9076 20.5562 37.4782 20.511 37.2296 20.3867C36.2238 19.8555 36.1785 18.2056 37.1618 17.6179C37.4669 17.4258 37.7381 17.3919 38.7665 17.3919C39.795 17.3919 40.0662 17.4258 40.3713 17.6179ZM14.8304 18.2508C15.5537 18.7819 15.5424 18.7028 15.5424 24.7151C15.5424 28.1733 15.5876 30.2527 15.6554 30.3883C15.7232 30.5127 16.1414 30.7952 16.5934 31.0325C17.5766 31.5524 18.7407 32.6599 19.2944 33.6092C20.3002 35.3383 20.6845 36.9657 20.5941 39.0225C20.5263 40.7064 20.3342 41.4297 19.6109 42.8763C19.3057 43.5091 19.0458 44.1081 19.0458 44.2324C19.0458 44.5715 19.4979 44.967 19.8934 44.967C20.2776 44.967 20.5489 44.7297 20.9218 44.0968L21.1252 43.7239H25.5214H29.9063L29.7029 44.0855C29.5899 44.2889 29.0135 44.9444 28.4259 45.5321C27.1827 46.7639 26.2221 47.3629 24.5834 47.9166C23.6228 48.2444 23.329 48.2896 21.7355 48.3461L19.9499 48.4139L19.0119 49.3519L18.0626 50.2899L14.0393 46.244L10.0161 42.1982L10.8863 41.3167L11.7565 40.4465L11.813 29.7668C11.8695 19.1662 11.8695 19.0984 12.1068 18.7819C12.2311 18.6124 12.5137 18.3412 12.7284 18.2056C13.0561 17.9795 13.2256 17.9456 13.8133 17.9795C14.2993 18.0134 14.627 18.0925 14.8304 18.2508ZM40.3374 22.5113C41.3658 23.1894 41.3093 24.8394 40.247 25.348C39.9758 25.4723 39.535 25.5288 38.7665 25.5288C37.9981 25.5288 37.5573 25.4723 37.2861 25.348C36.0542 24.7603 36.2238 22.7826 37.5347 22.3644C38.0998 22.1836 39.9871 22.2853 40.3374 22.5113ZM40.1792 27.4274C41.072 27.8682 41.3884 29.1 40.7895 29.8233C40.3035 30.3883 39.9758 30.5014 38.7552 30.5014C37.8511 30.5014 37.5912 30.4562 37.2409 30.264C36.6419 29.925 36.4046 29.439 36.4724 28.7045C36.5402 28.0603 36.834 27.6421 37.4104 27.3822C37.9302 27.1562 39.6932 27.1788 40.1792 27.4274ZM38.258 39.4068C38.258 40.4691 38.2241 40.7064 37.9981 41.1246C37.5008 42.0739 37.9641 42.0287 29.4204 42.0287C25.2615 42.0287 21.8711 41.9948 21.8711 41.9383C21.8711 41.893 21.9502 41.5766 22.0406 41.2376C22.1424 40.8985 22.2441 40.0735 22.2893 39.3955L22.3571 38.1862H30.3019H38.258V39.4068Z" fill="#878787"/>
<path d="M20.9201 10.3964C19.6882 11.6848 19.4961 11.9334 19.4961 12.2611C19.4961 12.8714 20.1855 13.2783 20.7392 12.9844C20.8522 12.9279 21.5642 12.2046 22.3214 11.4022C23.5533 10.08 23.6889 9.88788 23.6324 9.61665C23.5307 9.1985 23.1577 8.91597 22.717 8.91597C22.3892 8.91597 22.1858 9.08549 20.9201 10.3964Z" fill="url(#paint0_linear_55_3758)"/>
<path d="M23.6108 13.0978C20.0509 16.7708 19.5537 17.3245 19.5198 17.6636C19.4746 18.1721 19.8023 18.5225 20.3222 18.5225C20.6499 18.5225 20.955 18.2512 23.4865 15.6745C25.0235 14.1037 26.8995 12.1598 27.6454 11.3688C28.8659 10.0804 29.0016 9.88828 28.945 9.61705C28.8433 9.1989 28.4704 8.91637 28.0409 8.91637C27.7019 8.91637 27.2951 9.31192 23.6108 13.0978Z" fill="url(#paint1_linear_55_3758)"/>
<path d="M11.4171 7.61599C11.0555 7.96633 11.0442 8.45229 11.3945 8.78003C11.8353 9.18687 12.389 9.09646 12.6716 8.5653C13.1123 7.6951 12.0952 6.92662 11.4171 7.61599Z" fill="url(#paint2_linear_55_3758)"/>
<path d="M42.4484 7.85361C42.1545 8.22655 42.1545 8.46388 42.4371 8.83682C42.7422 9.22106 43.036 9.30017 43.4316 9.09675C43.7932 8.91593 43.9062 8.71251 43.9062 8.28306C43.9062 7.59368 42.8891 7.28855 42.4484 7.85361Z" fill="url(#paint3_linear_55_3758)"/>
<path d="M8.11653 10.6111C7.61928 10.8145 7.47236 11.583 7.85661 11.9673C8.17304 12.2837 8.7042 12.2611 9.04324 11.9108C9.41618 11.5491 9.39358 11.2327 8.99803 10.8258C8.64769 10.4755 8.52338 10.4529 8.11653 10.6111Z" fill="url(#paint4_linear_55_3758)"/>
<path d="M46.1997 10.8373C45.4086 11.165 45.6799 12.4194 46.5501 12.4194C46.9343 12.4194 47.409 11.9561 47.409 11.5944C47.409 11.0181 46.7422 10.6112 46.1997 10.8373Z" fill="url(#paint5_linear_55_3758)"/>
<path d="M5.01874 14.5441C4.6458 14.8492 4.6797 15.4256 5.07524 15.7759C5.44819 16.0924 5.70812 16.1037 6.09236 15.7985C6.30708 15.629 6.38619 15.4595 6.38619 15.177C6.38619 14.4424 5.6064 14.0808 5.01874 14.5441Z" fill="url(#paint6_linear_55_3758)"/>
<path d="M48.8255 14.8491C48.6673 14.996 48.543 15.2559 48.543 15.4141C48.543 15.5723 48.6673 15.8323 48.8255 15.9792C48.9724 16.1374 49.2323 16.2617 49.3906 16.2617C49.5488 16.2617 49.8087 16.1374 49.9556 15.9792C50.1138 15.8323 50.2382 15.5723 50.2382 15.4141C50.2382 15.2559 50.1138 14.996 49.9556 14.8491C49.8087 14.6908 49.5488 14.5665 49.3906 14.5665C49.2323 14.5665 48.9724 14.6908 48.8255 14.8491Z" fill="url(#paint7_linear_55_3758)"/>
<path d="M3.22327 18.601C2.86163 18.7366 2.6582 19.0191 2.6582 19.392C2.6582 20.4092 4.07086 20.5109 4.30819 19.5164C4.3647 19.2677 4.30819 19.1434 4.03696 18.8609C3.69792 18.5218 3.551 18.4766 3.22327 18.601Z" fill="url(#paint8_linear_55_3758)"/>
<path d="M50.8578 19.1434C50.5413 19.4485 50.5187 19.618 50.6995 20.0362C50.9595 20.6125 51.8636 20.6577 52.1461 20.1153C52.6321 19.2225 51.5697 18.4201 50.8578 19.1434Z" fill="url(#paint9_linear_55_3758)"/>
<path d="M1.53845 23.4498C1.26722 23.7889 1.24462 23.9358 1.42544 24.3313C1.61756 24.7495 2.10352 24.9077 2.52166 24.693C3.05282 24.4217 3.16584 23.8341 2.77029 23.4046C2.43125 23.043 1.84359 23.0656 1.53845 23.4498Z" fill="url(#paint10_linear_55_3758)"/>
<path d="M52.3035 23.5173C51.9079 23.7094 51.761 24.1954 51.9758 24.6022C52.0662 24.783 52.2357 24.9639 52.3261 25.0091C53.2302 25.3481 53.9535 24.1954 53.2189 23.619C52.8912 23.3591 52.6764 23.3365 52.3035 23.5173Z" fill="url(#paint11_linear_55_3758)"/>
<path d="M1.44858 27.9132C1.16605 28.0149 0.849609 28.4444 0.849609 28.7043C0.849609 28.806 0.951321 29.0207 1.08694 29.1903C1.53899 29.7666 2.5448 29.4502 2.5448 28.7156C2.5448 28.094 2.00234 27.7098 1.44858 27.9132Z" fill="url(#paint12_linear_55_3758)"/>
<path d="M52.5188 28.388C52.1684 28.7609 52.191 29.2921 52.564 29.5859C53.0499 29.9701 53.5359 29.8797 53.8071 29.3599C54.2479 28.501 53.1742 27.6873 52.5188 28.388Z" fill="url(#paint13_linear_55_3758)"/>
<path d="M1.78818 32.6488C0.997088 32.9765 1.27962 34.231 2.13852 34.231C2.57927 34.231 2.99742 33.8354 2.99742 33.4173C2.99742 32.8409 2.34194 32.4228 1.78818 32.6488Z" fill="url(#paint14_linear_55_3758)"/>
<path d="M52.0672 33.0557C51.7507 33.2705 51.7168 33.9937 52.022 34.265C52.587 34.7735 53.4007 34.4571 53.4007 33.7112C53.4007 32.9992 52.6661 32.6376 52.0672 33.0557Z" fill="url(#paint15_linear_55_3758)"/>
<path d="M2.90779 37.3499C2.58005 37.5759 2.55745 38.2879 2.88518 38.5817C3.42765 39.079 4.24134 38.6721 4.24134 37.9036C4.24134 37.2482 3.49545 36.9317 2.90779 37.3499Z" fill="url(#paint16_linear_55_3758)"/>
<path d="M50.712 37.6212C50.0113 38.2767 50.9719 39.5085 51.7291 38.9322C52.0456 38.6948 52.1586 38.2767 51.9891 37.8924C51.763 37.35 51.1415 37.2144 50.712 37.6212Z" fill="url(#paint17_linear_55_3758)"/>
<path d="M48.5862 41.8367C47.9759 42.3679 48.315 43.272 49.1174 43.272C49.8633 43.272 50.191 42.2775 49.6033 41.8141C49.2191 41.509 48.9592 41.5203 48.5862 41.8367Z" fill="url(#paint18_linear_55_3758)"/>
<path d="M45.6029 45.6453C45.0943 46.1539 45.4786 47.0015 46.2131 47.0015C46.6313 47.0015 47.072 46.5946 47.072 46.2104C47.072 46.0974 46.9703 45.8826 46.8347 45.7131C46.5409 45.3402 45.9419 45.3063 45.6029 45.6453Z" fill="url(#paint19_linear_55_3758)"/>
<path d="M42.4381 48.5494C42.0652 48.6851 41.873 48.9676 41.873 49.3857C41.873 49.8717 42.1782 50.1655 42.6641 50.1655C43.1501 50.1655 43.4552 49.8717 43.4552 49.3857C43.4552 48.8094 42.9241 48.3686 42.4381 48.5494Z" fill="url(#paint20_linear_55_3758)"/>
<path d="M38.0985 51.1937C37.8838 51.3632 37.8047 51.5327 37.8047 51.804C37.8047 52.6968 38.9235 52.9793 39.3304 52.1882C39.5338 51.804 39.4208 51.4084 39.0252 51.1372C38.6862 50.8999 38.4602 50.9112 38.0985 51.1937Z" fill="url(#paint21_linear_55_3758)"/>
<path d="M33.6468 52.844C33.5112 52.957 33.3756 53.1831 33.3304 53.3526C33.2739 53.6012 33.3304 53.7255 33.6016 54.008C34.0084 54.4036 34.2797 54.4375 34.6865 54.1098C34.8899 53.9402 34.9804 53.7707 34.9804 53.5108C34.9804 52.8101 34.1667 52.4033 33.6468 52.844Z" fill="url(#paint22_linear_55_3758)"/>
<path d="M24.1416 53.7368C24.006 53.9063 23.9043 54.1211 23.9043 54.2341C23.9043 54.494 24.2998 54.9913 24.5824 55.0817C24.8423 55.1608 25.43 54.8782 25.5317 54.6296C25.8707 53.7255 24.718 53.0022 24.1416 53.7368Z" fill="url(#paint23_linear_55_3758)"/>
<path d="M28.9329 53.7255C28.7747 53.8724 28.6504 54.1324 28.6504 54.2906C28.6504 54.6635 29.125 55.1382 29.498 55.1382C29.8709 55.1382 30.3456 54.6635 30.3456 54.2906C30.3456 53.9176 29.8709 53.443 29.498 53.443C29.3398 53.443 29.0798 53.5673 28.9329 53.7255Z" fill="url(#paint24_linear_55_3758)"/>
<defs>
<linearGradient id="paint0_linear_55_3758" x1="18.6675" y1="9.19183" x2="24.5207" y2="15.2234" gradientUnits="userSpaceOnUse">
<stop stop-color="#D41700"/>
<stop offset="1" stop-color="#7F0011"/>
</linearGradient>
<linearGradient id="paint1_linear_55_3758" x1="17.6294" y1="9.55246" x2="31.1297" y2="23.2873" gradientUnits="userSpaceOnUse">
<stop stop-color="#D41700"/>
<stop offset="1" stop-color="#7F0011"/>
</linearGradient>
<linearGradient id="paint2_linear_55_3758" x1="10.811" y1="7.46125" x2="13.1778" y2="9.84782" gradientUnits="userSpaceOnUse">
<stop stop-color="#D41700"/>
<stop offset="1" stop-color="#7F0011"/>
</linearGradient>
<linearGradient id="paint3_linear_55_3758" x1="41.8909" y1="7.66803" x2="44.2019" y2="10.1086" gradientUnits="userSpaceOnUse">
<stop stop-color="#D41700"/>
<stop offset="1" stop-color="#7F0011"/>
</linearGradient>
<linearGradient id="paint4_linear_55_3758" x1="7.30484" y1="10.6279" x2="9.65481" y2="13.0577" gradientUnits="userSpaceOnUse">
<stop stop-color="#D41700"/>
<stop offset="1" stop-color="#7F0011"/>
</linearGradient>
<linearGradient id="paint5_linear_55_3758" x1="45.3951" y1="10.8827" x2="47.7048" y2="13.3216" gradientUnits="userSpaceOnUse">
<stop stop-color="#D41700"/>
<stop offset="1" stop-color="#7F0011"/>
</linearGradient>
<linearGradient id="paint6_linear_55_3758" x1="4.43244" y1="14.449" x2="6.79801" y2="16.8186" gradientUnits="userSpaceOnUse">
<stop stop-color="#D41700"/>
<stop offset="1" stop-color="#7F0011"/>
</linearGradient>
<linearGradient id="paint7_linear_55_3758" x1="48.2042" y1="14.6788" x2="50.5856" y2="17.1441" gradientUnits="userSpaceOnUse">
<stop stop-color="#D41700"/>
<stop offset="1" stop-color="#7F0011"/>
</linearGradient>
<linearGradient id="paint8_linear_55_3758" x1="2.32455" y1="18.6485" x2="4.67516" y2="21.0771" gradientUnits="userSpaceOnUse">
<stop stop-color="#D41700"/>
<stop offset="1" stop-color="#7F0011"/>
</linearGradient>
<linearGradient id="paint9_linear_55_3758" x1="50.2496" y1="18.9711" x2="52.5411" y2="21.4154" gradientUnits="userSpaceOnUse">
<stop stop-color="#D41700"/>
<stop offset="1" stop-color="#7F0011"/>
</linearGradient>
<linearGradient id="paint10_linear_55_3758" x1="0.969299" y1="23.2556" x2="3.27139" y2="25.7208" gradientUnits="userSpaceOnUse">
<stop stop-color="#D41700"/>
<stop offset="1" stop-color="#7F0011"/>
</linearGradient>
<linearGradient id="paint11_linear_55_3758" x1="51.5484" y1="23.5102" x2="53.8964" y2="25.9026" gradientUnits="userSpaceOnUse">
<stop stop-color="#D41700"/>
<stop offset="1" stop-color="#7F0011"/>
</linearGradient>
<linearGradient id="paint12_linear_55_3758" x1="0.510885" y1="27.9663" x2="2.7948" y2="30.4264" gradientUnits="userSpaceOnUse">
<stop stop-color="#D41700"/>
<stop offset="1" stop-color="#7F0011"/>
</linearGradient>
<linearGradient id="paint13_linear_55_3758" x1="51.9417" y1="28.2352" x2="54.3307" y2="30.6228" gradientUnits="userSpaceOnUse">
<stop stop-color="#D41700"/>
<stop offset="1" stop-color="#7F0011"/>
</linearGradient>
<linearGradient id="paint14_linear_55_3758" x1="0.987546" y1="32.6953" x2="3.29592" y2="35.1295" gradientUnits="userSpaceOnUse">
<stop stop-color="#D41700"/>
<stop offset="1" stop-color="#7F0011"/>
</linearGradient>
<linearGradient id="paint15_linear_55_3758" x1="51.4928" y1="32.9865" x2="53.7909" y2="35.3004" gradientUnits="userSpaceOnUse">
<stop stop-color="#D41700"/>
<stop offset="1" stop-color="#7F0011"/>
</linearGradient>
<linearGradient id="paint16_linear_55_3758" x1="2.3325" y1="37.2695" x2="4.63597" y2="39.5846" gradientUnits="userSpaceOnUse">
<stop stop-color="#D41700"/>
<stop offset="1" stop-color="#7F0011"/>
</linearGradient>
<linearGradient id="paint17_linear_55_3758" x1="50.1493" y1="37.497" x2="52.5337" y2="39.823" gradientUnits="userSpaceOnUse">
<stop stop-color="#D41700"/>
<stop offset="1" stop-color="#7F0011"/>
</linearGradient>
<linearGradient id="paint18_linear_55_3758" x1="47.9474" y1="41.7034" x2="50.3085" y2="44.0781" gradientUnits="userSpaceOnUse">
<stop stop-color="#D41700"/>
<stop offset="1" stop-color="#7F0011"/>
</linearGradient>
<linearGradient id="paint19_linear_55_3758" x1="45.0312" y1="45.5162" x2="47.2554" y2="47.9786" gradientUnits="userSpaceOnUse">
<stop stop-color="#D41700"/>
<stop offset="1" stop-color="#7F0011"/>
</linearGradient>
<linearGradient id="paint20_linear_55_3758" x1="41.5569" y1="48.6181" x2="43.8861" y2="50.9203" gradientUnits="userSpaceOnUse">
<stop stop-color="#D41700"/>
<stop offset="1" stop-color="#7F0011"/>
</linearGradient>
<linearGradient id="paint21_linear_55_3758" x1="37.48" y1="51.081" x2="39.8445" y2="53.4456" gradientUnits="userSpaceOnUse">
<stop stop-color="#D41700"/>
<stop offset="1" stop-color="#7F0011"/>
</linearGradient>
<linearGradient id="paint22_linear_55_3758" x1="32.9769" y1="52.7716" x2="35.3252" y2="55.2001" gradientUnits="userSpaceOnUse">
<stop stop-color="#D41700"/>
<stop offset="1" stop-color="#7F0011"/>
</linearGradient>
<linearGradient id="paint23_linear_55_3758" x1="23.5669" y1="53.5444" x2="25.8983" y2="55.9984" gradientUnits="userSpaceOnUse">
<stop stop-color="#D41700"/>
<stop offset="1" stop-color="#7F0011"/>
</linearGradient>
<linearGradient id="paint24_linear_55_3758" x1="28.3117" y1="53.5552" x2="30.693" y2="56.0206" gradientUnits="userSpaceOnUse">
<stop stop-color="#D41700"/>
<stop offset="1" stop-color="#7F0011"/>
</linearGradient>
</defs>
</svg>
