<svg width="257" height="302" viewBox="0 0 257 302" fill="none" xmlns="http://www.w3.org/2000/svg">
<g filter="url(#filter0_d_55_2313)">
<path d="M51.7374 203.749L74.903 190.412L128.155 221.077L158.212 203.72L105.018 172.997L128.415 159.777L204.601 203.72L128.155 247.836L51.7085 203.72L51.7374 203.749ZM206.367 174.01V200.624L129.921 156.566V136.981L153.087 123.616V143.143L206.367 173.894V174.01ZM206.367 93.0093V169.497L183.202 156.132V106.374L206.367 93.0093ZM204.63 90.1164L181.464 103.482L128.184 72.7592L98.1264 90.1164L151.349 120.868L127.952 134.088L51.7374 90.0875L128.155 46.0001L204.63 90.0875V90.1164ZM50 119.855V93.0093L126.446 137.126V156.71L103.281 170.075V150.491L50 119.768V119.855ZM50 123.818L73.1655 138.08V187.52L50 200.856V123.732V123.818Z" fill="url(#paint0_linear_55_2313)"/>
</g>
<defs>
<filter id="filter0_d_55_2313" x="0" y="0.00012207" width="256.367" height="301.836" filterUnits="userSpaceOnUse" color-interpolation-filters="sRGB">
<feFlood flood-opacity="0" result="BackgroundImageFix"/>
<feColorMatrix in="SourceAlpha" type="matrix" values="0 0 0 0 0 0 0 0 0 0 0 0 0 0 0 0 0 0 127 0" result="hardAlpha"/>
<feOffset dy="4"/>
<feGaussianBlur stdDeviation="25"/>
<feComposite in2="hardAlpha" operator="out"/>
<feColorMatrix type="matrix" values="0 0 0 0 0.74902 0 0 0 0 0.0705882 0 0 0 0 0.0196078 0 0 0 0.5 0"/>
<feBlend mode="normal" in2="BackgroundImageFix" result="effect1_dropShadow_55_2313"/>
<feBlend mode="normal" in="SourceGraphic" in2="effect1_dropShadow_55_2313" result="shape"/>
</filter>
<linearGradient id="paint0_linear_55_2313" x1="18.7555" y1="234.471" x2="295.691" y2="12.3533" gradientUnits="userSpaceOnUse">
<stop stop-color="#D41700"/>
<stop offset="1" stop-color="#7F0011"/>
</linearGradient>
</defs>
</svg>
